Simulation
nRows=15
nColumns=15
endheader
time  TH_x TH_y TH_z SC_y  SC_z  SC_x  AC_y  AC_z  AC_x  GH_y  GH_z  GH_yy  EL_x  PS_y
8.073123595505619  0.000000  0.000000  0.000000  -23.598519642098815  6.188634520883984  -4.754560795267742  57.707810270904886  8.854511218893123  8.476221222343264  -44.68490892865534  3.7810276042739632  100.51704254490282  16.762099344945867  120.000000
8.113288389513109  0.000000  0.000000  0.000000  -23.240275355358897  6.101363798151901  -5.321987752396402  57.8529415149273  8.408736284784473  8.82293485746672  -27.493381183168655  4.795377506172939  82.72861982173443  16.26570255973105  120.000000
8.153453183520599  0.000000  0.000000  0.000000  -22.873302908654484  5.983238676460105  -5.90265595057175  58.05008259281073  7.983186015952028  9.205410907403811  -16.199539953530998  6.129525982174033  70.6490217145478  15.716111542265365  120.000000
8.19361797752809  0.000000  0.000000  0.000000  -22.5119281487606  5.850093402182824  -6.464283309267653  58.30686482030443  7.609678239530818  9.623854046436925  -8.457437207770214  7.698655317651252  61.936240744330895  15.133160606281123  120.000000
8.23378277153558  0.000000  0.000000  0.000000  -22.173553476546633  5.723549888814806  -6.9747917374630894  58.62830988436112  7.318706313623289  10.074832118303519  -2.8148199118723967  9.478725129833844  55.146157776920354  14.538595764830736  120.000000
8.273947565543072  0.000000  0.000000  0.000000  -21.873726022243805  5.626816475833981  -7.405523576643917  59.01624549218739  7.135586766285722  10.552225769082716  1.506946371815338  11.467556826394937  49.51270213450973  13.954106428780356  120.000000
8.314112359550561  0.000000  0.000000  0.000000  -21.62348196818552  5.580233987290989  -7.733952506219952  59.4694761456679  7.0783738506426666  11.04922564993476  4.932668570809091  13.665086933534969  44.62824658469933  13.399110906180878  120.000000
8.354277153558053  0.000000  0.000000  0.000000  -21.428123273016094  5.596753516954301  -7.943669533462346  59.98311600531313  7.155411320164953  11.56013308096202  7.706268604799783  16.06397084093148  40.270408197313174  12.888786024725702  120.000000
8.394441947565543  0.000000  0.000000  0.000000  -21.286117195113363  5.681402969779984  -8.024650135644036  60.54936846311629  7.3642832333231425  12.079833744625843  9.980029658148258  18.64578092701282  36.312847885347196  12.432680371113458  120.000000
8.434606741573035  0.000000  0.000000  0.000000  -21.191230747516983  5.834722839611653  -7.972685058809355  61.15938342324827  7.6937107643594205  12.601074987317771  11.860326857269433  21.382331642517354  32.67767227613406  12.035118282033197  120.000000
8.474771535580524  0.000000  0.000000  0.000000  -21.136097617625435  6.054354277518009  -7.788214602442505  61.80156580212409  8.126238217477937  13.114728109959772  13.42365717454923  24.23951550210683  29.317071271351402  11.695069588432524  120.000000
8.514936329588014  0.000000  0.000000  0.000000  -21.113434073736084  6.333461485144478  -7.4744709028756295  62.461527525201944  8.640473240227314  13.611208237536722  14.72472068636918  27.179878765647647  26.20258126313209  11.407169560041998  120.000000
8.555101123595506  0.000000  0.000000  0.000000  -21.117329278853656  6.662793680914813  -7.035649108225426  63.125757280377336  9.212385532322811  14.083922348315992  15.808405612286244  30.165278222833976  23.311980054424314  11.164555173510989  120.000000
8.595265917602996  0.000000  0.000000  0.000000  -21.143234888596005  7.032323062084791  -6.476294929818645  63.78304391569479  9.817551449647834  14.529200408627796  16.714461361955028  33.16044201897502  20.624147304292016  10.96077944666969  120.000000
8.635430711610487  0.000000  0.000000  0.000000  -21.18818710247662  7.430467250102157  -5.801951029669456  64.42205124253192  10.43206589791432  14.943783403400309  17.472519184161264  36.13413597074879  18.122633646125607  10.789907668095708  120.000000
